<?xml version="1.0" encoding="UTF-8"?>
<svg xmlns="http://www.w3.org/2000/svg" viewBox="0 0 1180 820" font-family="Helvetica, Arial, sans-serif">
  <defs>
    <marker id="arrow" viewBox="0 0 10 10" refX="9" refY="5" markerWidth="6" markerHeight="6" orient="auto-start-reverse">
      <path d="M0,0 L10,5 L0,10 Z" fill="#444"/>
    </marker>
    <marker id="arrowBlue" viewBox="0 0 10 10" refX="9" refY="5" markerWidth="6" markerHeight="6" orient="auto-start-reverse">
      <path d="M0,0 L10,5 L0,10 Z" fill="#1f4e79"/>
    </marker>
    <marker id="arrowGreen" viewBox="0 0 10 10" refX="9" refY="5" markerWidth="6" markerHeight="6" orient="auto-start-reverse">
      <path d="M0,0 L10,5 L0,10 Z" fill="#2e7d32"/>
    </marker>
    <marker id="arrowPurple" viewBox="0 0 10 10" refX="9" refY="5" markerWidth="6" markerHeight="6" orient="auto-start-reverse">
      <path d="M0,0 L10,5 L0,10 Z" fill="#5e35b1"/>
    </marker>
    <marker id="arrowPink" viewBox="0 0 10 10" refX="9" refY="5" markerWidth="6" markerHeight="6" orient="auto-start-reverse">
      <path d="M0,0 L10,5 L0,10 Z" fill="#ad1457"/>
    </marker>
    <style>
      .title       { font-size: 22px; font-weight: bold; fill: #1a1a1a; }
      .legend      { font-size: 11px; fill: #555; }
      .layer-label { font-size: 13px; font-weight: bold; fill: #fff; }
      .box-title   { font-size: 13px; font-weight: bold; fill: #1a1a1a; }
      .box-text    { font-size: 11px; fill: #333; }
      .box-meta    { font-size: 10px; fill: #555; font-style: italic; }
      .flow-label  { font-size: 10px; fill: #1f4e79; font-weight: bold; }
      .v2-tag      { font-size: 9px; font-weight: bold; fill: #b22222; }
    </style>
  </defs>

  <!-- Title -->
  <text x="590" y="28" text-anchor="middle" class="title">Reineke-RAG · System-Architektur (Offline, v2)</text>
  <text x="590" y="48" text-anchor="middle" class="legend">Lokale, multi-tenant Retrieval-Augmented-Generation Pipeline · Stand 2026-05-21</text>

  <!-- ===================== CLIENT LAYER ===================== -->
  <rect x="40" y="70" width="1100" height="80" rx="8" fill="#eef3fb" stroke="#1f4e79" stroke-width="1.5"/>
  <rect x="40" y="70" width="160" height="80" rx="8" fill="#1f4e79"/>
  <text x="120" y="113" text-anchor="middle" class="layer-label">Client-Schicht</text>

  <rect x="225" y="87" width="220" height="48" rx="5" fill="#fff" stroke="#1f4e79"/>
  <text x="335" y="106" text-anchor="middle" class="box-title">Open WebUI</text>
  <text x="335" y="122" text-anchor="middle" class="box-text">OpenAI-kompatibler Chat-Client</text>

  <rect x="465" y="87" width="220" height="48" rx="5" fill="#fff" stroke="#1f4e79"/>
  <text x="575" y="106" text-anchor="middle" class="box-title">Admin-Web-UI</text>
  <text x="575" y="122" text-anchor="middle" class="box-text">Bootstrap + htmx · /admin/</text>
  <text x="680" y="80" text-anchor="end" class="v2-tag">NEU v2</text>

  <rect x="705" y="87" width="220" height="48" rx="5" fill="#fff" stroke="#1f4e79"/>
  <text x="815" y="106" text-anchor="middle" class="box-title">Browser / cURL</text>
  <text x="815" y="122" text-anchor="middle" class="box-text">Native /chat- &amp; Verwaltungs-API</text>

  <rect x="945" y="87" width="180" height="48" rx="5" fill="#fff" stroke="#1f4e79"/>
  <text x="1035" y="106" text-anchor="middle" class="box-title">Admin / Skripte</text>
  <text x="1035" y="122" text-anchor="middle" class="box-text">CLI · MediaWiki-Import</text>

  <!-- ===================== API LAYER ===================== -->
  <rect x="40" y="175" width="1100" height="130" rx="8" fill="#fff8e1" stroke="#bf8a00" stroke-width="1.5"/>
  <rect x="40" y="175" width="160" height="130" rx="8" fill="#bf8a00"/>
  <text x="120" y="230" text-anchor="middle" class="layer-label">API-Schicht</text>
  <text x="120" y="250" text-anchor="middle" class="legend" fill="#fff">FastAPI · :8000</text>
  <text x="120" y="268" text-anchor="middle" class="legend" fill="#fff">12 öffentliche Endpunkte</text>
  <text x="120" y="284" text-anchor="middle" class="legend" fill="#fff">+ /admin/api/*</text>

  <rect x="225" y="190" width="180" height="30" rx="4" fill="#fff" stroke="#bf8a00"/>
  <text x="315" y="208" text-anchor="middle" class="box-text">GET /health</text>
  <rect x="225" y="226" width="180" height="30" rx="4" fill="#fff" stroke="#bf8a00"/>
  <text x="315" y="244" text-anchor="middle" class="box-text">POST /sources/scan-path</text>
  <rect x="225" y="262" width="180" height="30" rx="4" fill="#fff" stroke="#bf8a00"/>
  <text x="315" y="280" text-anchor="middle" class="box-text">POST /sources/ingest-path</text>

  <rect x="415" y="190" width="220" height="30" rx="4" fill="#fff" stroke="#bf8a00"/>
  <text x="525" y="208" text-anchor="middle" class="box-text">POST /sources/mediawiki/import-xml</text>
  <text x="635" y="184" text-anchor="end" class="v2-tag">NEU v2</text>
  <rect x="415" y="226" width="220" height="30" rx="4" fill="#fff" stroke="#bf8a00"/>
  <text x="525" y="244" text-anchor="middle" class="box-text">POST /documents/reindex-changed</text>
  <rect x="415" y="262" width="220" height="30" rx="4" fill="#fff" stroke="#bf8a00"/>
  <text x="525" y="280" text-anchor="middle" class="box-text">POST /retrieve · LLM-frei</text>
  <text x="635" y="295" text-anchor="end" class="v2-tag">NEU v2</text>

  <rect x="645" y="190" width="220" height="30" rx="4" fill="#fff" stroke="#bf8a00"/>
  <text x="755" y="208" text-anchor="middle" class="box-text">GET /documents</text>
  <rect x="645" y="226" width="220" height="30" rx="4" fill="#fff" stroke="#bf8a00"/>
  <text x="755" y="244" text-anchor="middle" class="box-text">DELETE /documents/{id}</text>
  <rect x="645" y="262" width="220" height="30" rx="4" fill="#fff" stroke="#bf8a00"/>
  <text x="755" y="280" text-anchor="middle" class="box-text">POST /chat</text>

  <rect x="875" y="190" width="250" height="30" rx="4" fill="#fff" stroke="#bf8a00"/>
  <text x="1000" y="208" text-anchor="middle" class="box-text">/v1/chat/completions · /v1/models</text>
  <rect x="875" y="226" width="250" height="30" rx="4" fill="#fff" stroke="#bf8a00"/>
  <text x="1000" y="244" text-anchor="middle" class="box-text">/admin/api/* (HTMX · 30+ Endpunkte)</text>
  <text x="1125" y="220" text-anchor="end" class="v2-tag">NEU v2</text>
  <rect x="875" y="262" width="250" height="30" rx="4" fill="#fff" stroke="#bf8a00"/>
  <text x="1000" y="280" text-anchor="middle" class="box-text">RequestLogMiddleware · Audit</text>
  <text x="1125" y="262" text-anchor="end" class="v2-tag">NEU v2</text>

  <!-- ===================== SECURITY GATE ===================== -->
  <rect x="40" y="320" width="1100" height="40" rx="6" fill="#fdecea" stroke="#c62828" stroke-width="1.5"/>
  <text x="590" y="345" text-anchor="middle" class="box-title" fill="#c62828">
    Sicherheits-Gate · path_security.resolve_safe_path()  +  qdrant_store.search() erzwingt tenant/project-Filter
  </text>

  <!-- ===================== SERVICE LAYER ===================== -->
  <rect x="40" y="375" width="1100" height="135" rx="8" fill="#e8f5e9" stroke="#2e7d32" stroke-width="1.5"/>
  <rect x="40" y="375" width="160" height="135" rx="8" fill="#2e7d32"/>
  <text x="120" y="430" text-anchor="middle" class="layer-label">Service-Schicht</text>
  <text x="120" y="450" text-anchor="middle" class="legend" fill="#fff">Geschäftslogik</text>

  <rect x="220" y="392" width="200" height="100" rx="6" fill="#fff" stroke="#2e7d32"/>
  <text x="320" y="412" text-anchor="middle" class="box-title">IngestionService</text>
  <text x="320" y="429" text-anchor="middle" class="box-text">Scan → Hash → Load →</text>
  <text x="320" y="443" text-anchor="middle" class="box-text">Chunk → Embed →</text>
  <text x="320" y="457" text-anchor="middle" class="box-text">Upsert (Qdrant) · current_file</text>
  <text x="320" y="471" text-anchor="middle" class="box-text">+ MediaWiki Source-Type</text>
  <text x="320" y="486" text-anchor="middle" class="box-meta">ingestion_service.py</text>

  <rect x="430" y="392" width="200" height="100" rx="6" fill="#fff" stroke="#2e7d32"/>
  <text x="530" y="412" text-anchor="middle" class="box-title">RetrievalService</text>
  <text x="530" y="429" text-anchor="middle" class="box-text">Embed + Vektor-Suche</text>
  <text x="530" y="443" text-anchor="middle" class="box-text">+ Reranker (lazy) v2</text>
  <text x="530" y="457" text-anchor="middle" class="box-text">+ Synonym-Expansion v2</text>
  <text x="530" y="471" text-anchor="middle" class="box-text">+ Stem-Dedup v2</text>
  <text x="530" y="486" text-anchor="middle" class="box-meta">retrieval_service.py</text>

  <rect x="640" y="392" width="200" height="100" rx="6" fill="#fff" stroke="#2e7d32"/>
  <text x="740" y="412" text-anchor="middle" class="box-title">ChatService</text>
  <text x="740" y="429" text-anchor="middle" class="box-text">Retrieval → Prompt → LLM</text>
  <text x="740" y="443" text-anchor="middle" class="box-text">+ History (Turns) v2</text>
  <text x="740" y="457" text-anchor="middle" class="box-text">+ Cross-Turn-Recall v2</text>
  <text x="740" y="471" text-anchor="middle" class="box-text">+ Persona-Prompt v2</text>
  <text x="740" y="486" text-anchor="middle" class="box-meta">chat_service.py</text>

  <rect x="850" y="392" width="135" height="100" rx="6" fill="#fff" stroke="#2e7d32"/>
  <text x="917" y="412" text-anchor="middle" class="box-title">Scheduler</text>
  <text x="917" y="431" text-anchor="middle" class="box-text">APScheduler</text>
  <text x="917" y="446" text-anchor="middle" class="box-text">Tägliche Cron-</text>
  <text x="917" y="461" text-anchor="middle" class="box-text">Ingest-Jobs</text>
  <text x="917" y="486" text-anchor="middle" class="box-meta">scheduler_service</text>
  <text x="983" y="386" text-anchor="end" class="v2-tag">NEU v2</text>

  <rect x="995" y="392" width="135" height="100" rx="6" fill="#fff" stroke="#2e7d32"/>
  <text x="1062" y="412" text-anchor="middle" class="box-title">MediaWiki</text>
  <text x="1062" y="428" text-anchor="middle" class="box-text">XML-Import</text>
  <text x="1062" y="442" text-anchor="middle" class="box-text">Pages + Uploads</text>
  <text x="1062" y="457" text-anchor="middle" class="box-text">URL-Citations</text>
  <text x="1062" y="486" text-anchor="middle" class="box-meta">connectors/</text>
  <text x="1128" y="386" text-anchor="end" class="v2-tag">NEU v2</text>

  <!-- ===================== ADAPTER / PARSER LAYER ===================== -->
  <rect x="40" y="525" width="1100" height="90" rx="8" fill="#ede7f6" stroke="#5e35b1" stroke-width="1.5"/>
  <rect x="40" y="525" width="160" height="90" rx="8" fill="#5e35b1"/>
  <text x="120" y="568" text-anchor="middle" class="layer-label">Adapter / Parser</text>
  <text x="120" y="586" text-anchor="middle" class="legend" fill="#fff">7 Loader · 3 Stores</text>

  <rect x="215" y="540" width="135" height="60" rx="5" fill="#fff" stroke="#5e35b1"/>
  <text x="282" y="558" text-anchor="middle" class="box-title">DocumentLoader</text>
  <text x="282" y="574" text-anchor="middle" class="box-text">PDF · DOCX · XLSX</text>
  <text x="282" y="589" text-anchor="middle" class="box-text">HTML · PPTX · ODT</text>

  <rect x="360" y="540" width="135" height="60" rx="5" fill="#fff" stroke="#5e35b1"/>
  <text x="427" y="558" text-anchor="middle" class="box-title">OfficeConverter</text>
  <text x="427" y="574" text-anchor="middle" class="box-text">.doc · .xls · .odt</text>
  <text x="427" y="589" text-anchor="middle" class="box-text">(LibreOffice)</text>

  <rect x="505" y="540" width="125" height="60" rx="5" fill="#fff" stroke="#5e35b1"/>
  <text x="567" y="558" text-anchor="middle" class="box-title">Chunker</text>
  <text x="567" y="574" text-anchor="middle" class="box-text">Text + Tabellen</text>
  <text x="567" y="589" text-anchor="middle" class="box-text">+ Dateiname-Präfix</text>

  <rect x="640" y="540" width="135" height="60" rx="5" fill="#fff" stroke="#5e35b1"/>
  <text x="707" y="558" text-anchor="middle" class="box-title">OllamaClient</text>
  <text x="707" y="574" text-anchor="middle" class="box-text">Embed · Chat (HTTP)</text>
  <text x="707" y="589" text-anchor="middle" class="box-text">num_ctx Auto-Detect</text>

  <rect x="785" y="540" width="125" height="60" rx="5" fill="#fff" stroke="#5e35b1"/>
  <text x="847" y="558" text-anchor="middle" class="box-title">QdrantStore</text>
  <text x="847" y="574" text-anchor="middle" class="box-text">Upsert · Search</text>
  <text x="847" y="589" text-anchor="middle" class="box-text">get_by_ids</text>

  <rect x="920" y="540" width="210" height="60" rx="5" fill="#fff" stroke="#5e35b1"/>
  <text x="1025" y="558" text-anchor="middle" class="box-title">Reranker (FlagEmbedding)</text>
  <text x="1025" y="574" text-anchor="middle" class="box-text">bge-reranker-v2-m3 · Cross-Encoder</text>
  <text x="1025" y="589" text-anchor="middle" class="box-text">lazy load · ~2 GB · 50–200 ms/query</text>
  <text x="1128" y="534" text-anchor="end" class="v2-tag">NEU v2</text>

  <!-- ===================== PERSISTENCE / EXTERN ===================== -->
  <rect x="40" y="630" width="1100" height="155" rx="8" fill="#fce4ec" stroke="#ad1457" stroke-width="1.5"/>
  <rect x="40" y="630" width="160" height="155" rx="8" fill="#ad1457"/>
  <text x="120" y="695" text-anchor="middle" class="layer-label">Persistenz &amp;</text>
  <text x="120" y="713" text-anchor="middle" class="layer-label">externe Dienste</text>

  <!-- SQLite -->
  <rect x="215" y="645" width="225" height="125" rx="6" fill="#fff" stroke="#ad1457"/>
  <text x="328" y="665" text-anchor="middle" class="box-title">SQLite (WAL)</text>
  <text x="328" y="681" text-anchor="middle" class="box-text">file_sources · documents</text>
  <text x="328" y="696" text-anchor="middle" class="box-text">ingestion_jobs · chat_sessions</text>
  <text x="328" y="711" text-anchor="middle" class="box-text">chat_messages</text>
  <text x="328" y="725" text-anchor="middle" class="box-text" fill="#b22222">+ request_logs · ingest_schedules</text>
  <text x="328" y="739" text-anchor="middle" class="box-text" fill="#b22222">+ tenant_project_prompts</text>
  <text x="328" y="753" text-anchor="middle" class="box-text" fill="#b22222">+ system_prompt · settings_overrides</text>
  <text x="328" y="765" text-anchor="middle" class="box-meta">storage/rag.sqlite · 10 Tabellen</text>

  <!-- Qdrant -->
  <rect x="450" y="645" width="190" height="125" rx="6" fill="#fff" stroke="#ad1457"/>
  <text x="545" y="665" text-anchor="middle" class="box-title">Qdrant :6333</text>
  <text x="545" y="681" text-anchor="middle" class="box-text">Vektor-Datenbank</text>
  <text x="545" y="696" text-anchor="middle" class="box-text">Collection: documents</text>
  <text x="545" y="711" text-anchor="middle" class="box-text">Distance: Cosine</text>
  <text x="545" y="725" text-anchor="middle" class="box-text">Payload-Index:</text>
  <text x="545" y="739" text-anchor="middle" class="box-text">tenant · project · document_id</text>
  <text x="545" y="753" text-anchor="middle" class="box-text">file_extension · source_type</text>
  <text x="545" y="765" text-anchor="middle" class="box-meta">~1024-dim (bge-m3)</text>

  <!-- Ollama -->
  <rect x="650" y="645" width="195" height="125" rx="6" fill="#fff" stroke="#ad1457"/>
  <text x="747" y="665" text-anchor="middle" class="box-title">Ollama :11434</text>
  <text x="747" y="681" text-anchor="middle" class="box-text">LLM-Runtime (lokal)</text>
  <text x="747" y="696" text-anchor="middle" class="box-text">Embedding: bge-m3</text>
  <text x="747" y="711" text-anchor="middle" class="box-text">Chat: qwen2.5:14b/32b</text>
  <text x="747" y="725" text-anchor="middle" class="box-text">Reranker: bge-reranker-v2-m3</text>
  <text x="747" y="739" text-anchor="middle" class="box-text">keep_alive 24h · num_ctx auto</text>
  <text x="747" y="753" text-anchor="middle" class="box-text">per-Agent-Override möglich</text>
  <text x="747" y="765" text-anchor="middle" class="box-meta">100 % offline</text>

  <!-- Filesystem -->
  <rect x="855" y="645" width="275" height="125" rx="6" fill="#fff" stroke="#ad1457"/>
  <text x="992" y="665" text-anchor="middle" class="box-title">Dokument-Ablage</text>
  <text x="992" y="681" text-anchor="middle" class="box-text">Server-seitig gemountet (read-only)</text>
  <text x="992" y="696" text-anchor="middle" class="box-text">ALLOWED_BASE_PATHS</text>
  <text x="992" y="711" text-anchor="middle" class="box-text">PDF · DOCX · DOC · XLSX · XLS</text>
  <text x="992" y="725" text-anchor="middle" class="box-text">HTML · PPTX · ODT</text>
  <text x="992" y="739" text-anchor="middle" class="box-text">MediaWiki-Exports (xml + images/)</text>
  <text x="992" y="753" text-anchor="middle" class="box-text">SHA-256 · mtime-Tracking</text>
  <text x="992" y="765" text-anchor="middle" class="box-meta">Allow-list erzwingt Zugriff</text>

  <!-- ===================== FLOW ARROWS ===================== -->
  <!-- Client to API -->
  <line x1="335" y1="135" x2="335" y2="175" stroke="#1f4e79" stroke-width="1.5" marker-end="url(#arrowBlue)"/>
  <line x1="575" y1="135" x2="575" y2="175" stroke="#1f4e79" stroke-width="1.5" marker-end="url(#arrowBlue)"/>
  <line x1="815" y1="135" x2="815" y2="175" stroke="#1f4e79" stroke-width="1.5" marker-end="url(#arrowBlue)"/>
  <line x1="1035" y1="135" x2="1035" y2="175" stroke="#1f4e79" stroke-width="1.5" marker-end="url(#arrowBlue)"/>

  <!-- API to Security Gate -->
  <line x1="590" y1="305" x2="590" y2="320" stroke="#444" stroke-width="1.2" marker-end="url(#arrow)"/>

  <!-- Security to Services -->
  <line x1="320" y1="360" x2="320" y2="392" stroke="#2e7d32" stroke-width="1.5" marker-end="url(#arrowGreen)"/>
  <line x1="530" y1="360" x2="530" y2="392" stroke="#2e7d32" stroke-width="1.5" marker-end="url(#arrowGreen)"/>
  <line x1="740" y1="360" x2="740" y2="392" stroke="#2e7d32" stroke-width="1.5" marker-end="url(#arrowGreen)"/>
  <line x1="917" y1="360" x2="917" y2="392" stroke="#2e7d32" stroke-width="1.5" marker-end="url(#arrowGreen)"/>
  <line x1="1062" y1="360" x2="1062" y2="392" stroke="#2e7d32" stroke-width="1.5" marker-end="url(#arrowGreen)"/>

  <!-- Services to Adapters -->
  <line x1="320" y1="492" x2="282" y2="540" stroke="#5e35b1" stroke-width="1.2" marker-end="url(#arrowPurple)"/>
  <line x1="320" y1="492" x2="427" y2="540" stroke="#5e35b1" stroke-width="1.2" marker-end="url(#arrowPurple)"/>
  <line x1="320" y1="492" x2="567" y2="540" stroke="#5e35b1" stroke-width="1.2" marker-end="url(#arrowPurple)"/>
  <line x1="530" y1="492" x2="707" y2="540" stroke="#5e35b1" stroke-width="1.2" marker-end="url(#arrowPurple)"/>
  <line x1="530" y1="492" x2="847" y2="540" stroke="#5e35b1" stroke-width="1.2" marker-end="url(#arrowPurple)"/>
  <line x1="530" y1="492" x2="1025" y2="540" stroke="#5e35b1" stroke-width="1.2" marker-end="url(#arrowPurple)"/>
  <line x1="740" y1="492" x2="707" y2="540" stroke="#5e35b1" stroke-width="1.2" marker-end="url(#arrowPurple)"/>
  <line x1="1062" y1="492" x2="427" y2="540" stroke="#5e35b1" stroke-width="1.2" stroke-dasharray="3,3" marker-end="url(#arrowPurple)"/>

  <!-- Adapters to Persistence -->
  <line x1="707" y1="600" x2="747" y2="645" stroke="#ad1457" stroke-width="1.2" marker-end="url(#arrowPink)"/>
  <line x1="847" y1="600" x2="545" y2="645" stroke="#ad1457" stroke-width="1.2" marker-end="url(#arrowPink)"/>
  <line x1="282" y1="600" x2="992" y2="645" stroke="#ad1457" stroke-width="1.2" marker-end="url(#arrowPink)"/>
  <line x1="427" y1="600" x2="992" y2="645" stroke="#ad1457" stroke-width="1.2" marker-end="url(#arrowPink)"/>
  <line x1="1025" y1="600" x2="747" y2="645" stroke="#ad1457" stroke-width="1.2" stroke-dasharray="3,3" marker-end="url(#arrowPink)"/>

  <!-- Services to SQLite (SQLAlchemy) -->
  <line x1="220" y1="442" x2="170" y2="442" stroke="#ad1457" stroke-width="1" stroke-dasharray="3,3"/>
  <line x1="170" y1="442" x2="170" y2="705" stroke="#ad1457" stroke-width="1" stroke-dasharray="3,3"/>
  <line x1="170" y1="705" x2="215" y2="705" stroke="#ad1457" stroke-width="1" stroke-dasharray="3,3" marker-end="url(#arrow)"/>
  <text x="146" y="575" text-anchor="middle" class="legend" fill="#ad1457" transform="rotate(-90 146 575)">SQLAlchemy</text>

  <!-- Legend -->
  <rect x="40" y="795" width="14" height="10" fill="#1f4e79"/>
  <text x="60" y="805" class="legend">HTTP-Anfragen</text>
  <rect x="170" y="795" width="14" height="10" fill="#2e7d32"/>
  <text x="190" y="805" class="legend">Service-Aufrufe (nach Sicherheits-Gate)</text>
  <rect x="450" y="795" width="14" height="10" fill="#5e35b1"/>
  <text x="470" y="805" class="legend">Adapter-Aufrufe</text>
  <rect x="600" y="795" width="14" height="10" fill="#ad1457"/>
  <text x="620" y="805" class="legend">Persistenz / I/O</text>
  <text x="760" y="805" class="legend" font-style="italic">gestrichelt: nur bei Reranker / nur bei MediaWiki</text>
  <text x="1135" y="815" text-anchor="end" class="legend" font-size="10">© Reineke-Technik · alle Daten on-premise</text>
</svg>
